<?xml version="1.0" standalone="no"?>
<!DOCTYPE svg PUBLIC "-//W3C//DTD SVG 20010904//EN"
 "http://www.w3.org/TR/2001/REC-SVG-20010904/DTD/svg10.dtd">
<svg version="1.0" xmlns="http://www.w3.org/2000/svg"
 width="600.000000pt" height="600.000000pt" viewBox="0 0 600.000000 600.000000"
 preserveAspectRatio="xMidYMid meet">

<g transform="translate(0.000000,600.000000) scale(0.100000,-0.100000)"
fill="#000000" stroke="none">
<path d="M4395 5979 c-78 -16 -604 -79 -905 -109 -589 -57 -1292 -111 -1546
-117 l-251 -6 -6 -126 c-3 -69 -13 -157 -22 -196 -38 -160 -67 -274 -85 -335
-61 -210 -79 -282 -84 -341 -8 -82 7 -94 56 -48 29 27 118 76 126 70 2 -2 13
4 25 11 12 8 41 20 65 26 23 7 42 18 42 23 0 6 7 8 16 5 9 -4 22 -2 28 2 26
21 201 62 261 62 19 0 44 4 57 9 30 12 121 30 178 35 25 3 60 8 77 11 18 4 78
13 134 19 l100 11 4 59 c4 65 12 79 45 74 32 -4 48 -33 33 -57 -10 -16 -9 -24
6 -42 l19 -23 6 32 c3 18 9 46 12 62 6 30 40 50 63 35 16 -10 13 -25 -5 -25
-14 0 -14 -2 -3 -16 11 -14 10 -18 -6 -30 -16 -12 -16 -14 -2 -14 9 0 20 -8
26 -17 8 -16 11 -15 20 10 6 16 11 37 11 47 0 47 29 67 49 33 9 -17 10 -17 16
0 4 9 16 17 26 17 16 0 19 -8 19 -55 0 -30 4 -55 9 -55 5 0 15 26 23 58 8 31
18 57 23 57 6 0 12 -25 15 -55 4 -41 9 -56 22 -58 14 -3 17 6 20 55 2 44 7 58
18 58 11 0 14 -10 12 -37 -2 -22 2 -38 8 -38 5 0 10 11 10 24 0 35 10 56 27
56 13 0 15 -11 11 -60 -4 -51 -2 -60 11 -58 11 2 18 20 23 52 4 26 9 54 12 62
8 21 26 17 35 -8 l8 -22 12 22 c6 12 19 22 27 22 13 0 15 -12 12 -65 l-3 -65
40 -1 c55 -2 78 -5 111 -14 16 -5 38 -9 49 -11 123 -12 227 -30 260 -45 11 -5
36 -11 55 -13 19 -3 35 -5 35 -6 0 -1 18 -3 40 -6 58 -6 129 -31 170 -59 20
-13 45 -27 56 -30 10 -4 19 -13 19 -21 0 -8 5 -12 10 -9 6 3 10 -1 10 -9 0 -9
4 -16 10 -16 13 0 50 -32 50 -43 0 -5 11 -22 24 -37 19 -24 23 -37 19 -73 -4
-31 -1 -48 10 -59 9 -9 14 -18 11 -21 -3 -2 2 -7 9 -10 11 -4 20 15 37 76 12
45 24 87 26 92 7 17 -6 -344 -21 -590 -8 -126 -21 -262 -29 -301 -43 -201
-150 -378 -311 -514 -135 -114 -349 -237 -550 -316 -60 -23 -123 -50 -140 -58
-16 -8 -42 -19 -57 -25 -16 -6 -28 -14 -28 -19 0 -5 -24 -21 -52 -37 -29 -15
-67 -41 -85 -58 l-32 -30 -42 37 c-42 35 -59 40 -128 36 -31 -2 -33 0 -27 22
4 12 8 30 9 40 1 9 14 28 30 42 15 14 27 32 27 41 0 8 7 15 15 15 8 0 15 8 16
18 0 9 8 -1 18 -22 14 -33 19 -37 24 -22 4 10 5 34 1 53 -5 27 -10 32 -25 28
-14 -5 -22 2 -34 32 -13 31 -14 46 -5 84 7 26 18 56 25 66 13 17 14 16 15 -9
0 -57 29 -32 30 26 0 10 7 24 15 30 8 6 16 34 18 64 l5 52 -32 1 -31 1 29 12
c24 11 34 11 57 -1 16 -8 29 -21 29 -29 0 -30 34 -10 49 29 6 16 18 27 30 27
29 0 57 81 46 136 -6 37 -21 45 -28 17 -4 -14 -5 -14 -6 3 0 12 6 27 15 35 24
20 44 65 44 101 0 33 0 33 44 30 24 -2 55 2 69 10 47 25 109 90 129 136 13 29
48 72 93 115 68 64 73 71 78 120 10 90 -11 166 -45 167 -3 0 -8 -8 -11 -17 -5
-24 -35 43 -52 117 -17 71 -38 127 -55 143 -10 10 -11 7 -6 -15 5 -21 3 -28
-8 -28 -12 0 -15 -11 -13 -47 1 -33 -5 -57 -18 -77 l-19 -29 -12 34 c-7 19
-13 28 -13 20 -1 -11 -4 -11 -17 0 -11 9 -14 22 -10 44 4 18 0 49 -8 71 -14
38 -15 39 -15 9 -1 -17 -8 -41 -17 -53 -9 -13 -20 -35 -25 -50 -5 -18 -6 -10
-2 26 7 67 -12 64 -45 -8 -16 -35 -29 -50 -42 -50 -24 0 -24 3 0 -45 21 -41
26 -90 11 -99 -4 -3 -11 -31 -15 -61 -3 -31 -16 -75 -27 -97 -14 -27 -22 -66
-25 -109 -4 -82 -29 -175 -49 -183 -8 -3 -15 -15 -15 -28 0 -17 -3 -19 -12
-10 -9 9 -16 8 -30 -5 -10 -9 -18 -22 -18 -29 0 -7 -21 -27 -46 -44 l-46 -31
6 28 c4 15 20 56 36 90 15 34 26 64 22 67 -3 3 0 6 6 6 7 0 12 5 12 10 0 6 9
19 20 30 30 30 25 110 -6 110 -8 0 -14 -8 -14 -19 0 -10 -7 -24 -15 -31 -8 -7
-15 -19 -15 -26 0 -8 -4 -14 -9 -14 -5 0 -13 -9 -16 -20 -9 -27 -41 -61 -87
-93 -21 -14 -54 -44 -73 -67 -29 -35 -33 -45 -24 -62 11 -21 3 -134 -11 -153
-4 -5 -10 -23 -13 -40 -3 -16 -9 -38 -12 -47 -5 -13 -2 -18 10 -18 11 0 15 -5
11 -15 -3 -8 -1 -15 4 -15 6 0 10 9 10 20 0 20 24 50 62 79 14 11 17 10 16 -6
0 -10 3 -53 6 -95 5 -67 4 -81 -15 -112 -15 -26 -28 -36 -46 -36 -19 0 -24 -5
-23 -22 4 -40 0 -59 -9 -54 -21 13 -29 -19 -19 -72 9 -42 13 -50 24 -41 11 9
14 -2 13 -67 -2 -121 -5 -132 -42 -139 -18 -4 -60 -18 -95 -32 -56 -22 -65
-23 -85 -11 -37 24 -65 27 -114 11 -27 -8 -96 -16 -155 -17 l-108 -3 -16 43
c-28 75 -51 88 -155 91 -141 3 -229 -37 -284 -131 -35 -59 -47 -126 -35 -182
9 -40 8 -49 -7 -66 -25 -28 -25 -168 0 -215 l17 -32 -66 -63 c-85 -81 -146
-163 -197 -263 l-41 -80 -7 -260 c-4 -143 -10 -486 -13 -762 l-6 -502 52 -5
c29 -3 123 -13 208 -21 85 -9 240 -29 345 -46 431 -68 837 -117 1325 -159 261
-22 581 -60 768 -90 187 -30 171 -35 243 73 74 108 119 203 148 309 30 106 39
391 46 1418 3 454 7 1012 9 1240 3 295 1 404 -6 377 -7 -26 -21 -45 -42 -58
-39 -24 -50 -24 -41 -1 4 9 12 36 17 60 6 26 15 42 24 42 8 0 24 9 35 19 21
19 21 22 18 796 -3 501 -8 778 -14 783 -5 4 -10 32 -9 62 1 61 -31 561 -46
714 -6 54 -10 104 -10 112 0 16 -31 17 -95 3z m-905 -476 c-1 -62 -19 -216
-27 -223 -11 -11 -980 -66 -989 -57 -9 8 23 228 34 239 4 4 138 17 297 28 160
11 344 24 410 29 66 4 155 9 198 10 l77 1 0 -27z m-862 -426 c2 -18 -2 -29
-13 -33 -9 -4 -21 -18 -26 -31 -12 -33 -45 -27 -42 7 8 83 12 91 46 88 27 -2
33 -8 35 -31z m1872 -587 c0 -5 -2 -10 -4 -10 -3 0 -8 5 -11 10 -3 6 -1 10 4
10 6 0 11 -4 11 -10z m0 -51 c0 -6 -4 -7 -10 -4 -5 3 -10 11 -10 16 0 6 5 7
10 4 6 -3 10 -11 10 -16z m-8 -44 c0 -5 -5 -11 -11 -13 -6 -2 -11 4 -11 13 0
9 5 15 11 13 6 -2 11 -8 11 -13z m-1092 -42 c-1 -28 -3 -34 -10 -22 -8 14 -3
59 6 59 2 0 4 -17 4 -37z m-30 -150 c0 -35 -3 -44 -10 -33 -13 20 -13 80 0 80
6 0 10 -21 10 -47z m1155 -305 c0 -35 4 -94 8 -131 5 -47 4 -67 -3 -62 -6 3
-8 10 -5 15 9 15 -24 32 -50 26 -34 -9 -32 -23 5 -31 37 -8 38 -22 5 -37 -30
-14 -32 -29 -5 -53 15 -13 17 -22 10 -29 -15 -15 -25 3 -56 99 -50 155 -42
248 23 258 71 10 68 13 68 -55z m25 -258 c0 -13 -5 -18 -15 -14 -16 7 -19 17
-8 27 12 13 23 7 23 -13z m10 -83 c0 -18 -2 -19 -10 -7 -13 20 -13 43 0 35 6
-3 10 -16 10 -28z m-50 -42 c0 -8 -2 -15 -4 -15 -2 0 -6 7 -10 15 -3 8 -1 15
4 15 6 0 10 -7 10 -15z m-1455 -24 c-3 -6 -11 -11 -17 -11 -6 0 -6 6 2 15 14
17 26 13 15 -4z m1495 -317 c0 -13 -6 -33 -12 -44 -10 -15 -10 -22 0 -32 28
-28 9 -78 -31 -82 -4 -1 -12 -8 -18 -16 -8 -13 -11 -12 -24 4 -16 21 -22 176
-7 176 16 0 40 -25 45 -47 3 -15 1 -23 -8 -23 -7 0 -18 -7 -25 -15 -20 -24 2
-40 29 -23 16 10 21 23 21 60 0 53 8 80 21 72 5 -3 9 -16 9 -30z m-36 -200 c3
-9 6 -27 6 -42 0 -20 -3 -23 -12 -14 -24 24 -48 -21 -32 -62 9 -23 23 -20 34
7 8 21 9 21 9 -5 1 -33 -18 -78 -34 -78 -25 0 -35 26 -35 91 0 52 4 72 21 93
24 30 34 33 43 10z m-2366 -148 c20 -20 28 -112 12 -131 -18 -22 -43 -18 -71
11 -13 14 -37 33 -52 41 -25 13 -31 13 -53 -2 -26 -17 -32 -47 -11 -62 6 -6
37 -18 67 -28 31 -10 69 -32 88 -51 28 -28 32 -39 32 -84 0 -125 -104 -220
-241 -220 -32 0 -76 7 -98 16 -37 14 -41 20 -52 70 -21 95 14 147 50 75 25
-48 55 -71 94 -71 70 0 94 57 35 82 -124 52 -158 88 -158 170 0 85 58 164 142
195 45 15 197 8 216 -11z m1510 -48 c4 -35 10 -35 46 2 20 21 39 30 60 30 40
0 52 -9 66 -44 31 -83 -77 -178 -138 -123 -38 35 -52 13 -52 -84 0 -49 3 -59
25 -73 14 -9 25 -25 25 -36 0 -33 -43 -52 -132 -57 -132 -8 -168 20 -113 85
18 22 26 48 34 108 9 72 8 81 -10 100 -40 43 -16 71 88 105 76 24 97 21 101
-13z m-261 -30 c29 -29 37 -46 41 -86 7 -73 -16 -92 -105 -92 -85 0 -113 -8
-113 -30 0 -47 70 -66 130 -35 18 9 38 14 46 11 37 -14 -2 -83 -64 -115 -92
-47 -185 -34 -233 32 -59 81 -45 195 34 282 50 55 102 76 175 72 46 -3 59 -9
89 -39z m-391 -13 c18 -20 36 -51 40 -71 27 -144 -75 -310 -189 -308 -23 0
-49 2 -57 5 -22 6 -26 -48 -5 -71 36 -39 -12 -80 -93 -80 -54 0 -112 21 -129
47 -15 22 -14 26 10 51 29 31 33 49 47 187 l10 99 -27 22 c-26 21 -27 22 -10
48 19 28 111 79 164 90 26 6 34 4 42 -13 11 -20 12 -20 54 4 62 36 102 33 143
-10z m1508 2 c3 -12 6 -35 6 -51 0 -22 -3 -26 -13 -18 -29 25 -98 -44 -84 -82
6 -16 11 -16 52 7 l45 26 0 -45 c0 -41 -2 -45 -37 -59 -21 -9 -48 -26 -60 -37
l-23 -21 0 102 c0 113 12 156 54 189 31 24 51 20 60 -11z m-1945 -6 c11 -7 11
-30 0 -145 -12 -125 -11 -137 4 -154 10 -11 15 -26 11 -36 -9 -24 -73 -54
-133 -62 -43 -5 -51 -4 -51 9 0 27 -18 29 -48 7 -16 -12 -47 -24 -69 -27 -32
-4 -45 -1 -69 20 l-29 25 0 120 c0 84 -4 123 -13 135 -34 41 25 86 119 90 l54
2 -5 -75 c-3 -41 -5 -106 -5 -145 0 -63 2 -70 21 -73 32 -5 44 18 55 113 9 75
9 89 -5 104 -35 39 -17 63 65 85 64 17 80 19 98 7z m1905 -323 c-6 -30 4 -36
24 -16 9 9 12 2 12 -35 0 -35 -4 -47 -15 -47 -8 0 -20 -9 -27 -20 -7 -11 -16
-20 -20 -20 -12 0 -7 163 5 178 15 19 28 -6 21 -40z m31 -243 c-7 -49 -29 -80
-49 -72 -24 10 -30 56 -15 116 18 71 39 80 39 16 0 -61 19 -49 22 13 l1 47 4
-40 c3 -22 2 -58 -2 -80z m-2047 73 c58 -39 86 -105 85 -203 -1 -137 -59 -246
-157 -298 -37 -20 -56 -22 -206 -22 -153 0 -165 1 -168 19 -2 11 7 28 21 42
26 24 30 47 42 209 3 44 8 99 11 122 4 34 1 46 -15 60 -23 19 -28 58 -8 70 19
12 224 32 295 28 46 -2 72 -9 100 -27z m929 -74 c5 -14 -9 -51 -36 -94 -6 -8
-13 -31 -16 -51 -11 -68 -89 -123 -193 -135 -42 -4 -62 -11 -62 -20 0 -25 34
-31 118 -21 96 12 131 4 150 -36 33 -69 -37 -171 -137 -201 -101 -30 -222 -15
-257 32 -20 26 -17 63 8 89 20 21 20 24 5 41 -26 29 -21 66 14 100 l31 31 -22
36 c-42 69 -8 145 86 191 50 25 61 26 132 20 66 -5 82 -3 112 13 43 24 59 26
67 5z m-527 -46 c82 -42 114 -127 85 -225 -29 -99 -160 -183 -262 -169 -52 7
-97 36 -118 76 -21 41 -19 145 4 196 34 74 137 141 221 143 14 1 46 -9 70 -21z
m1644 -54 c3 -9 6 -29 6 -45 0 -16 5 -29 10 -29 22 0 -2 -75 -36 -110 -19 -20
-34 -42 -34 -50 0 -13 -2 -13 -10 0 -5 8 -10 53 -10 100 0 67 4 92 20 118 21
35 44 42 54 16z m-4 -257 c0 -37 -4 -46 -24 -55 -13 -6 -28 -21 -32 -34 -7
-22 -7 -22 -15 -3 -16 42 -9 66 29 100 20 19 38 35 40 35 1 0 2 -20 2 -43z
m-32 -178 c-18 -27 -36 -49 -40 -49 -5 0 -8 17 -8 37 0 31 7 44 38 73 36 35
37 35 40 11 2 -14 -9 -42 -30 -72z m-728 24 c43 -39 50 -83 43 -269 l-6 -161
-36 24 c-33 23 -43 25 -111 20 -41 -3 -120 -19 -175 -35 -55 -16 -156 -46
-225 -66 -150 -45 -238 -51 -287 -21 -55 32 -63 64 -63 239 0 86 2 156 5 156
3 0 21 -18 41 -39 42 -47 100 -64 167 -49 23 5 118 50 210 100 191 103 256
127 344 127 55 1 67 -3 93 -26z m-1865 -73 c20 -39 20 -40 -20 -40 l-35 0 17
35 c9 19 18 35 20 35 1 0 9 -13 18 -30z m2619 8 c11 -43 7 -78 -9 -72 -15 6
-17 -1 -30 -81 -14 -85 -55 -122 -75 -69 -17 45 7 184 32 184 6 0 7 -10 3 -22
-17 -60 -22 -89 -15 -93 13 -8 19 8 31 72 10 58 32 103 48 103 5 0 11 -10 15
-22z m-2656 -133 l3 -48 -32 7 c-18 3 -34 8 -36 10 -9 9 39 87 50 83 7 -2 13
-25 15 -52z m90 3 c12 -28 20 -53 18 -55 -2 -3 -20 -1 -40 2 -35 7 -36 9 -36
50 0 38 7 51 31 54 3 1 15 -22 27 -51z m192 -35 c0 -25 1 -25 18 -10 21 20 32
14 25 -12 -3 -14 -13 -18 -36 -16 -24 2 -31 7 -32 26 -3 27 2 39 16 39 5 0 9
-12 9 -27z m2365 -3 c-4 -12 -9 -19 -12 -17 -3 3 -2 15 2 27 4 12 9 19 12 17
3 -3 2 -15 -2 -27z m-2265 -30 c0 -6 -11 -10 -25 -10 -23 0 -34 18 -19 33 9 8
44 -11 44 -23z m53 2 c-6 -24 -23 -30 -23 -9 0 13 21 39 26 34 2 -2 1 -13 -3
-25z m257 -12 c5 0 11 4 14 8 6 10 66 3 66 -7 -1 -26 -21 -32 -101 -29 -75 4
-84 6 -84 23 0 22 34 34 45 16 4 -8 13 -4 26 10 l19 21 3 -21 c2 -11 7 -21 12
-21z m-144 19 c3 -5 2 -14 -2 -21 -5 -8 -10 -6 -15 8 -7 18 -8 18 -8 -1 -1
-18 -6 -20 -41 -17 -41 4 -48 10 -29 29 12 12 87 14 95 2z m282 -37 c3 -18 -2
-22 -22 -22 -32 0 -40 14 -20 35 21 20 38 15 42 -13z m82 -7 c0 -20 -4 -24
-22 -21 -21 3 -24 8 -19 36 0 6 10 10 21 10 15 0 20 -7 20 -25z m-381 -68
c-10 -22 -19 -27 -48 -27 -20 0 -50 4 -68 9 -20 6 -33 6 -35 0 -5 -14 -38 0
-38 15 0 14 20 36 32 36 4 0 8 -7 8 -15 0 -8 5 -15 10 -15 6 0 10 5 10 10 0 6
14 4 35 -4 19 -8 34 -12 34 -8 -3 19 2 23 15 13 12 -10 17 -8 26 9 17 32 34
10 19 -23z m307 -13 c51 3 57 0 44 -24 -7 -13 -19 -17 -42 -16 -18 2 -46 4
-61 5 -25 1 -27 4 -21 24 3 12 12 28 18 36 9 12 12 11 14 -7 3 -18 9 -20 48
-18z m-246 7 c0 -11 -3 -26 -6 -34 -5 -14 -8 -14 -24 0 -14 13 -16 21 -9 35
13 24 39 23 39 -1z m130 0 c-1 -26 -25 -34 -87 -32 -24 1 -33 6 -33 19 0 14
10 17 60 18 33 1 60 -2 60 -5z m220 -30 c0 -11 6 -21 13 -24 6 -3 -3 -5 -21
-4 -36 0 -55 23 -31 38 23 14 39 10 39 -10z m-843 -171 c103 -62 85 -260 -23
-260 -73 0 -112 43 -121 135 -12 117 58 178 144 125z m400 -36 c79 -50 91
-190 22 -248 -52 -44 -120 -30 -169 36 -21 27 -25 44 -25 100 0 60 3 70 29 97
41 42 91 47 143 15z m403 -29 c90 -47 112 -185 40 -257 -39 -39 -105 -40 -150
-2 -41 35 -70 94 -69 141 0 28 2 33 8 19 4 -11 16 -20 27 -22 10 -1 57 -5 104
-9 47 -4 89 -8 94 -9 6 0 11 6 13 15 4 18 -27 25 -140 33 -26 2 -51 7 -54 10
-4 3 -15 6 -25 6 -21 0 -22 4 -7 31 14 28 69 59 102 59 15 0 41 -7 57 -15z
m426 -36 c102 -49 124 -195 41 -265 -26 -22 -38 -25 -78 -22 -93 9 -144 76
-137 179 5 64 23 93 73 115 41 18 52 17 101 -7z"/>
<path d="M3266 5445 c-3 -8 -1 -15 4 -15 13 0 22 18 11 24 -5 3 -11 -1 -15 -9z"/>
<path d="M3306 5445 c-9 -23 -8 -25 9 -25 17 0 19 9 6 28 -7 11 -10 10 -15 -3z"/>
<path d="M3345 5450 c-8 -13 4 -32 16 -25 12 8 12 35 0 35 -6 0 -13 -4 -16
-10z"/>
<path d="M3390 5439 c0 -11 5 -17 10 -14 6 3 10 13 10 21 0 8 -4 14 -10 14 -5
0 -10 -9 -10 -21z"/>
<path d="M3221 5434 c0 -11 3 -14 6 -6 3 7 2 16 -1 19 -3 4 -6 -2 -5 -13z"/>
<path d="M2990 5419 c0 -14 6 -19 17 -17 26 5 28 33 3 35 -14 1 -20 -4 -20
-18z"/>
<path d="M3050 5423 c0 -10 4 -14 8 -8 4 6 11 13 16 18 5 4 2 7 -7 7 -10 0
-17 -8 -17 -17z"/>
<path d="M3120 5424 c0 -8 5 -12 10 -9 6 3 10 10 10 16 0 5 -4 9 -10 9 -5 0
-10 -7 -10 -16z"/>
<path d="M2660 5397 c0 -12 6 -17 17 -15 26 5 28 34 3 34 -13 0 -20 -7 -20
-19z"/>
<path d="M2717 5413 c-10 -9 -9 -33 1 -33 4 0 8 9 9 20 2 21 0 24 -10 13z"/>
<path d="M2752 5409 c2 -7 10 -15 17 -17 8 -3 12 1 9 9 -2 7 -10 15 -17 17 -8
3 -12 -1 -9 -9z"/>
<path d="M2566 5401 c-4 -7 -5 -15 -2 -18 9 -9 19 4 14 18 -4 11 -6 11 -12 0z"/>
<path d="M3101 5344 c0 -11 3 -14 6 -6 3 7 2 16 -1 19 -3 4 -6 -2 -5 -13z"/>
<path d="M3186 5347 c3 -10 9 -15 12 -12 3 3 0 11 -7 18 -10 9 -11 8 -5 -6z"/>
<path d="M2936 5341 c-4 -7 -5 -15 -2 -18 9 -9 19 4 14 18 -4 11 -6 11 -12 0z"/>
<path d="M2991 5334 c0 -11 3 -14 6 -6 3 7 2 16 -1 19 -3 4 -6 -2 -5 -13z"/>
<path d="M2796 5331 c-4 -7 -5 -15 -2 -18 9 -9 19 4 14 18 -4 11 -6 11 -12 0z"/>
<path d="M2836 5331 c-4 -7 -5 -15 -2 -18 9 -9 19 4 14 18 -4 11 -6 11 -12 0z"/>
<path d="M2875 5330 c3 -5 8 -10 11 -10 2 0 4 5 4 10 0 6 -5 10 -11 10 -5 0
-7 -4 -4 -10z"/>
<path d="M4472 3842 c-16 -2 -22 -8 -18 -19 3 -8 6 -23 6 -32 0 -13 8 -18 30
-19 26 -1 29 2 20 18 -5 10 -7 25 -4 33 7 18 -4 24 -34 19z"/>
<path d="M3244 2695 c-30 -30 -27 -49 7 -53 34 -4 60 18 53 45 -9 33 -32 36
-60 8z"/>
<path d="M2812 2628 c-11 -14 -30 -138 -24 -156 7 -21 51 -13 66 11 21 31 30
97 17 130 -11 29 -41 36 -59 15z"/>
<path d="M4450 2175 c0 -8 5 -15 10 -15 6 0 10 7 10 15 0 8 -4 15 -10 15 -5 0
-10 -7 -10 -15z"/>
<path d="M2257 2168 c-13 -11 -19 -44 -29 -179 -6 -91 -9 -173 -5 -182 10 -27
60 -21 91 9 61 61 75 271 23 329 -28 30 -58 39 -80 23z"/>
<path d="M3130 2075 c-12 -15 -16 -107 -5 -125 11 -17 43 -11 59 12 18 26 21
80 6 109 -13 23 -43 25 -60 4z"/>
<path d="M3046 1711 c-19 -31 48 -68 100 -55 38 9 54 22 54 45 0 17 -8 19 -74
19 -41 0 -77 -4 -80 -9z"/>
<path d="M2742 2017 c-37 -39 -21 -92 16 -55 9 9 12 8 12 -5 0 -9 6 -20 13
-24 6 -4 12 -17 12 -28 0 -35 30 -23 33 14 2 20 -1 31 -6 27 -6 -3 -8 2 -5 14
7 27 -5 72 -18 64 -6 -3 -15 -16 -20 -28 -8 -17 -9 -15 -5 12 6 38 -3 40 -32
9z"/>
<path d="M2682 1978 c-17 -17 -15 -48 2 -48 18 0 32 38 19 51 -5 5 -14 4 -21
-3z"/>
<path d="M2696 1917 c-48 -27 -53 -40 -26 -65 22 -21 92 -33 113 -20 17 11
-20 108 -42 108 -3 0 -24 -10 -45 -23z"/>
<path d="M4458 1975 c-13 -29 -8 -38 15 -29 18 6 30 32 21 45 -10 16 -24 10
-36 -16z"/>
<path d="M3431 1541 c-6 -10 -10 -31 -9 -47 0 -16 -7 -47 -15 -69 -29 -73 -18
-145 18 -115 19 16 41 145 27 162 -7 9 -7 19 -2 28 13 20 13 60 0 60 -5 0 -14
-8 -19 -19z"/>
<path d="M3577 1517 c-12 -19 -22 -22 -50 -19 -43 5 -54 -11 -28 -40 26 -27
26 -27 -4 -68 -43 -58 -22 -85 25 -35 16 17 27 22 34 15 15 -15 42 -12 57 6
11 13 10 21 -6 50 -18 33 -18 37 -2 64 9 15 17 33 17 39 0 19 -27 12 -43 -12z"/>
<path d="M3303 1493 c-11 -10 -33 -49 -49 -88 l-29 -69 -7 48 c-8 61 -19 73
-54 60 -19 -6 -28 -17 -30 -36 -1 -15 -24 -74 -50 -132 -26 -59 -44 -109 -40
-113 15 -15 42 16 76 86 l36 73 9 -43 c11 -48 39 -73 55 -49 6 8 20 42 32 75
22 59 22 59 29 27 12 -61 40 -76 80 -43 24 19 24 20 6 51 -12 19 -20 56 -22
98 -1 36 -7 68 -12 69 -6 2 -19 -4 -30 -14z"/>
<path d="M2660 1250 c0 -5 5 -10 10 -10 6 0 10 5 10 10 0 6 -4 10 -10 10 -5 0
-10 -4 -10 -10z"/>
<path d="M1814 1015 c-4 -15 -1 -32 7 -42 8 -9 14 -35 14 -57 l0 -41 54 -5
c60 -6 67 0 58 55 -4 26 -2 35 9 35 8 0 14 9 14 19 0 16 -10 20 -59 26 -37 4
-62 12 -65 21 -8 22 -25 16 -32 -11z m96 -64 c0 -18 -18 -21 -30 -6 -10 13 -9
15 9 15 11 0 21 -4 21 -9z"/>
<path d="M2200 955 c0 -17 6 -25 18 -26 9 0 45 -2 80 -6 52 -4 62 -3 62 11 0
17 -23 25 -87 29 -23 1 -45 6 -49 10 -14 14 -24 7 -24 -18z"/>
<path d="M2191 906 c-17 -20 -2 -46 25 -46 30 0 33 30 5 47 -15 10 -22 9 -30
-1z"/>
<path d="M2250 896 c0 -29 30 -46 81 -46 42 0 49 3 49 20 0 17 -7 20 -44 20
-25 0 -48 5 -51 10 -9 15 -35 12 -35 -4z"/>
<path d="M2642 848 c2 -19 11 -24 48 -29 51 -8 66 1 52 28 -8 14 -23 20 -57
22 -43 2 -46 0 -43 -21z"/>
<path d="M3054 925 c-10 -25 7 -35 74 -41 44 -5 62 -3 62 5 0 14 -12 18 -63
24 -20 3 -44 10 -52 17 -12 10 -16 9 -21 -5z"/>
<path d="M3060 845 c0 -21 5 -25 28 -25 15 0 51 -3 80 -6 43 -6 52 -4 52 9 0
12 -15 17 -57 22 -32 3 -66 10 -75 15 -25 14 -28 13 -28 -15z"/>
<path d="M3025 850 c-4 -6 -3 -16 3 -22 6 -6 12 -6 17 2 4 6 3 16 -3 22 -6 6
-12 6 -17 -2z"/>
<path d="M3050 786 c0 -26 8 -29 91 -41 32 -5 49 -3 54 5 12 19 -7 29 -65 35
-30 3 -56 10 -58 15 -7 19 -22 10 -22 -14z"/>
<path d="M3050 4630 c0 -5 5 -10 10 -10 6 0 10 5 10 10 0 6 -4 10 -10 10 -5 0
-10 -4 -10 -10z"/>
<path d="M2325 4586 c-21 -32 -44 -94 -45 -120 0 -11 -7 -27 -16 -37 -12 -13
-19 -52 -25 -146 -5 -70 -14 -141 -19 -157 -6 -16 -10 -54 -10 -84 0 -50 -8
-66 -14 -30 -6 34 -19 59 -29 55 -6 -2 -20 -15 -30 -29 -19 -25 -19 -28 -3
-44 13 -13 17 -30 14 -65 -4 -57 11 -67 32 -22 8 18 18 33 23 33 4 0 1 -13 -8
-30 -32 -61 -37 -87 -35 -165 2 -44 2 -89 1 -100 -3 -39 0 -110 5 -127 4 -13
1 -16 -10 -12 -26 10 -29 -21 -6 -68 l21 -43 -5 39 -5 39 29 -28 c35 -34 37
-39 11 -32 -13 3 -21 -1 -24 -14 -3 -11 -1 -19 4 -19 5 0 9 5 9 10 0 17 15 11
29 -12 10 -16 14 -46 12 -95 -1 -42 2 -74 8 -78 6 -3 11 0 11 8 0 7 7 14 15
14 11 0 15 -9 13 -31 -1 -17 6 -46 16 -65 10 -19 15 -43 12 -57 -4 -14 -2 -24
4 -24 5 0 10 -9 10 -19 0 -30 11 -51 26 -51 17 0 18 -12 2 -28 -9 -9 -9 -12 0
-12 25 0 64 53 59 80 -34 168 -31 235 12 334 24 55 41 127 42 179 0 23 6 68
13 101 16 78 43 98 123 94 57 -3 58 -3 61 -35 4 -37 8 -40 34 -17 10 10 35 17
55 18 31 1 38 4 36 20 -1 11 6 25 15 32 14 10 11 15 -21 44 -41 36 -47 64 -17
82 11 7 20 20 20 29 0 9 7 30 15 45 8 16 15 37 15 47 0 10 10 37 21 59 17 34
20 54 16 105 -5 70 -17 90 -64 110 -49 20 -100 16 -157 -14 -75 -39 -94 -60
-111 -119 -14 -48 -14 -57 -1 -83 9 -16 21 -61 27 -101 l12 -72 31 6 c17 4 43
9 57 12 17 4 30 0 40 -12 13 -16 12 -16 -9 -5 -12 7 -32 9 -43 6 -33 -11 -89
-66 -90 -89 0 -11 -4 -30 -9 -41 -7 -19 -9 -18 -19 8 -6 15 -17 27 -25 27 -8
0 -29 12 -46 26 l-31 27 5 -24 c3 -13 -1 -37 -8 -54 -9 -18 -15 -23 -15 -13
-1 9 -4 18 -8 20 -5 2 -17 20 -27 41 -11 20 -25 37 -33 37 -7 0 -13 7 -13 15
0 8 -8 15 -19 15 -17 0 -18 10 -16 178 2 180 10 239 46 321 13 28 16 47 10 55
-6 7 -5 39 4 91 8 43 12 81 10 83 -2 2 -11 -8 -20 -22z"/>
<path d="M2478 4557 c-53 -40 -62 -78 -24 -102 42 -28 97 -30 143 -7 62 32 64
58 9 117 -33 35 -74 33 -128 -8z"/>
<path d="M2986 4561 c-27 -18 -66 -79 -66 -104 0 -8 25 -26 55 -42 50 -25 60
-27 93 -17 63 20 102 49 102 77 0 14 -5 25 -10 25 -6 0 -22 12 -35 26 -13 14
-44 32 -68 39 -39 12 -47 11 -71 -4z"/>
<path d="M2036 4198 c-5 -31 -3 -55 5 -70 l12 -23 10 28 c6 19 4 40 -6 70
l-14 42 -7 -47z"/>
<path d="M2107 4193 c-4 -3 -7 -11 -7 -17 0 -6 5 -5 12 2 6 6 9 14 7 17 -3 3
-9 2 -12 -2z"/>
<path d="M2116 4143 c-4 -5 -13 -8 -19 -8 -15 0 -20 -36 -8 -55 12 -18 16 -14
36 33 14 34 10 48 -9 30z"/>
<path d="M2595 3380 c28 -12 67 -12 60 0 -3 6 -23 10 -43 9 -30 0 -33 -2 -17
-9z"/>
<path d="M3123 3199 c-6 -21 -7 -21 -20 -4 -13 18 -13 18 -13 0 0 -20 46 -85
59 -85 5 0 11 18 13 39 2 22 0 37 -4 35 -5 -3 -8 4 -8 15 0 28 -20 27 -27 0z"/>
<path d="M2403 2903 c-13 -2 -23 -11 -23 -20 0 -12 3 -13 13 -4 8 6 16 8 20 5
3 -3 15 -3 28 1 17 6 19 9 8 16 -8 5 -16 8 -19 7 -3 0 -15 -3 -27 -5z"/>
</g>
</svg>
